# This file uses centimeters as units for non-parametric coordinates.

mtllib Leaf_Test_WithColour.mtl
g default
v -3.448358 -0.000000 1.114852
v -1.843986 -0.000000 1.764803
v -0.720088 0.000000 2.873658
v 1.353581 0.000000 3.981996
v 3.448479 -0.000000 2.637318
v -4.721071 -0.000000 0.021510
v -1.409323 0.000000 1.327332
v 0.581675 0.000000 1.327332
v 2.572673 0.000000 1.327332
v 4.563671 0.000000 1.327332
v -1.409323 -0.000000 -1.327332
v 0.581675 -0.000000 -1.327332
v 2.572673 -0.000000 -1.327332
v 4.563671 -0.000000 -1.327332
v -3.448358 0.000000 -1.114852
v -1.843986 0.000000 -1.764803
v -0.720088 0.000000 -2.873658
v 1.353581 0.000000 -3.981996
v 3.448479 0.000000 -2.637318
v 2.942782 0.000000 0.012543
v 1.188728 0.000000 0.025540
v -0.572242 -0.000000 0.038538
v -1.961754 0.000000 0.051532
vt 0.045884 0.663947
vt 0.036795 0.641511
vt 0.042913 0.635433
vt 0.061173 0.681744
vt 0.021289 0.625795
vt 0.042913 0.607591
vt 0.060754 0.643158
vt 0.005790 0.596797
vt 0.042913 0.579749
vt 0.060935 0.623727
vt 0.080036 0.635433
vt 0.024594 0.567502
vt 0.042913 0.551907
vt 0.061117 0.599102
vt 0.080036 0.607591
vt 0.086153 0.641511
vt 0.077064 0.663947
vt 0.061299 0.574573
vt 0.080036 0.579749
vt 0.101659 0.625795
vt 0.080036 0.551907
vt 0.117158 0.596797
vt 0.098354 0.567502
vn 0.000000 1.000000 0.000000
vn 0.000000 1.000000 0.000000
vn 0.000000 1.000000 0.000000
vn 0.000000 1.000000 0.000000
vn 0.000000 1.000000 0.000000
vn 0.000000 1.000000 0.000000
vn 0.000000 1.000000 0.000000
vn 0.000000 1.000000 0.000000
vn 0.000000 1.000000 0.000000
vn 0.000000 1.000000 0.000000
vn 0.000000 1.000000 0.000000
vn 0.000000 1.000000 0.000000
vn 0.000000 1.000000 0.000000
vn 0.000000 1.000000 0.000000
vn 0.000000 1.000000 0.000000
vn 0.000000 1.000000 0.000000
vn 0.000000 1.000000 0.000000
vn 0.000000 1.000000 0.000000
vn 0.000000 1.000000 0.000000
vn 0.000000 1.000000 0.000000
vn 0.000000 1.000000 0.000000
vn 0.000000 1.000000 0.000000
vn 0.000000 1.000000 0.000000
vn 0.000000 1.000000 0.000000
vn 0.000000 1.000000 0.000000
vn 0.000000 1.000000 0.000000
vn 0.000000 1.000000 0.000000
vn 0.000000 1.000000 0.000000
vn 0.000000 1.000000 0.000000
vn 0.000000 1.000000 0.000000
vn 0.000000 1.000000 0.000000
vn 0.000000 1.000000 0.000000
vn 0.000000 1.000000 0.000000
vn 0.000000 1.000000 0.000000
vn 0.000000 1.000000 0.000000
vn 0.000000 1.000000 0.000000
vn 0.000000 1.000000 0.000000
vn 0.000000 1.000000 0.000000
vn 0.000000 1.000000 0.000000
vn 0.000000 1.000000 0.000000
vn 0.000000 1.000000 0.000000
vn 0.000000 1.000000 0.000000
vn 0.000000 1.000000 0.000000
vn 0.000000 1.000000 0.000000
vn 0.000000 1.000000 0.000000
vn 0.000000 1.000000 0.000000
vn 0.000000 1.000000 0.000000
vn 0.000000 1.000000 0.000000
vn 0.000000 1.000000 0.000000
vn 0.000000 1.000000 0.000000
vn 0.000000 1.000000 0.000000
vn 0.000000 1.000000 0.000000
vn 0.000000 1.000000 0.000000
vn 0.000000 1.000000 0.000000
vn 0.000000 1.000000 0.000000
vn 0.000000 1.000000 0.000000
vn 0.000000 1.000000 0.000000
vn 0.000000 1.000000 0.000000
vn 0.000000 1.000000 0.000000
vn 0.000000 1.000000 0.000000
vn 0.000000 1.000000 0.000000
vn 0.000000 1.000000 0.000000
s off
g TreeBranch_Test:leaf
usemtl TreeBranch_Test:lambert5SG
f 1/1/1 2/2/2 7/3/3 6/4/4
f 2/2/5 3/5/6 8/6/7 7/3/8
f 3/5/9 4/8/10 9/9/11 8/6/12
f 4/8/13 5/12/14 10/13/15 9/9/16
f 6/4/17 7/3/18 23/7/19
f 7/3/20 8/6/21 22/10/22 23/7/23
f 8/6/24 9/9/25 21/14/26 22/10/27
f 9/9/28 10/13/29 20/18/30 21/14/31
f 6/4/32 11/11/33 16/16/34 15/17/35
f 11/11/36 12/15/37 17/20/38 16/16/39
f 12/15/40 13/19/41 18/22/42 17/20/43
f 13/19/44 14/21/45 19/23/46 18/22/47
f 21/14/48 20/18/49 14/21/50 13/19/51
f 22/10/52 21/14/53 13/19/54 12/15/55
f 23/7/56 22/10/57 12/15/58 11/11/59
f 6/4/60 23/7/61 11/11/62
