# This file uses centimeters as units for non-parametric coordinates.

g default
v -1.677142 2.495747 0.000000
v -1.600373 2.473526 -0.475332
v -1.408934 2.168309 -0.466857
v -1.202486 1.824728 -0.457717
v -1.223889 1.792833 0.000000
v -4.526699 0.874825 0.000000
v -4.491825 0.835902 -0.598096
v -4.366354 0.656073 -0.565290
v -4.375307 0.659965 0.000000
v -4.230674 0.453486 -0.527972
v -4.230147 0.460887 0.000000
v -1.974768 2.344925 0.000000
v -1.515009 1.644744 0.000000
v -1.493827 1.676792 -0.470893
v -1.703432 2.019162 -0.480173
v -1.897687 2.323238 -0.488772
v -2.540807 2.112984 0.000000
v -2.010993 1.338646 0.000000
v -1.987927 1.374803 -0.504947
v -2.229963 1.753759 -0.515662
v -2.453992 2.090155 -0.525580
v -3.170991 1.756925 0.000000
v -2.650390 1.049059 0.000000
v -2.629908 1.083326 -0.526740
v -2.868541 1.430302 -0.537305
v -3.088960 1.738016 -0.547062
v -3.789576 1.449663 0.000000
v -3.217813 0.753718 0.000000
v -3.198679 0.789412 -0.554960
v -3.461997 1.131456 -0.566617
v -3.704518 1.434313 -0.577354
v -4.229082 1.219044 0.000000
v -3.832175 0.457605 0.000000
v -3.816428 0.457605 -0.554573
v -3.993773 0.854596 -0.588205
v -4.161304 1.192359 -0.581761
v -1.213188 1.808781 -0.359615
v -1.504418 1.660768 -0.372508
v -1.999459 1.356725 -0.394423
v -2.640148 1.066192 -0.422786
v -3.208245 0.771565 -0.447935
v -3.822495 0.457605 -0.491371
v -4.230412 0.457186 -0.466584
v -4.370831 0.658019 -0.503202
v -4.509263 0.855363 -0.539157
v -4.195193 1.205701 -0.477090
v -3.747046 1.441988 -0.471788
v -3.129976 1.747470 -0.444470
v -2.497400 2.101570 -0.416466
v -1.936227 2.334082 -0.391623
v -1.638758 2.484637 -0.378454
v -1.600373 2.473526 0.475332
v -1.408934 2.168309 0.466857
v -1.202487 1.824728 0.457717
v -4.491825 0.835902 0.598096
v -4.366354 0.656073 0.565290
v -4.230674 0.453486 0.527972
v -1.493827 1.676792 0.470893
v -1.703432 2.019162 0.480173
v -1.897687 2.323238 0.488772
v -1.987927 1.374803 0.504947
v -2.229963 1.753759 0.515662
v -2.453992 2.090155 0.525580
v -2.629908 1.083326 0.526740
v -2.868541 1.430302 0.537305
v -3.088960 1.738016 0.547062
v -3.198679 0.789412 0.554960
v -3.461997 1.131456 0.566617
v -3.704518 1.434313 0.577354
v -3.816428 0.457605 0.554573
v -3.993773 0.854596 0.588205
v -4.161304 1.192359 0.581761
v -1.213188 1.808781 0.359615
v -1.504418 1.660768 0.372508
v -1.999459 1.356725 0.394423
v -2.640148 1.066192 0.422786
v -3.208245 0.771565 0.447935
v -3.822495 0.457605 0.491371
v -4.230412 0.457186 0.466584
v -4.370831 0.658019 0.503202
v -4.509263 0.855363 0.539157
v -4.195193 1.205701 0.477090
v -3.747046 1.441988 0.471788
v -3.129976 1.747470 0.444470
v -2.497400 2.101570 0.416466
v -1.936227 2.334082 0.391623
v -1.638758 2.484637 0.378454
v -1.659319 2.490588 0.175730
v -1.956872 2.339890 0.181844
v -2.520652 2.107684 0.193380
v -3.151946 1.752535 0.206383
v -3.769828 1.446099 0.219068
v -4.213346 1.212848 0.221530
v -4.518603 0.865788 0.250350
v -4.373229 0.659061 0.233655
v -4.230270 0.459168 0.216652
v -3.827680 0.457605 0.228161
v -3.213370 0.762005 0.207992
v -2.645634 1.057014 0.196315
v -2.005637 1.347041 0.183145
v -1.510091 1.652184 0.172969
v -1.218920 1.800238 0.166982
v -1.669572 2.493556 -0.074641
v -1.967167 2.342786 -0.077238
v -2.532246 2.110733 -0.082137
v -3.162902 1.755060 -0.087661
v -3.781188 1.448149 -0.093048
v -4.222399 1.216412 -0.094094
v -4.523260 0.870987 -0.106335
v -4.374425 0.659581 -0.099244
v -4.230200 0.460157 -0.092022
v -3.830266 0.457605 -0.096911
v -3.215926 0.757238 -0.088344
v -2.648370 1.052438 -0.083384
v -2.008718 1.342212 -0.077790
v -1.512920 1.647904 -0.073468
v -1.221779 1.795978 -0.070925
v -1.650053 2.487906 -0.267089
v -1.947568 2.337273 -0.276383
v -2.510173 2.104928 -0.293915
v -3.142045 1.750252 -0.313679
v -3.759561 1.444247 -0.332958
v -4.205166 1.209627 -0.336700
v -4.514394 0.861090 -0.380503
v -4.372149 0.658592 -0.355128
v -4.230334 0.458275 -0.329286
v -3.825343 0.457605 -0.346779
v -3.211060 0.766313 -0.316124
v -2.643162 1.061150 -0.298376
v -2.002853 1.351405 -0.278359
v -1.507534 1.656053 -0.262893
v -1.216337 1.804088 -0.253794
vt 0.694284 0.105971
vt 0.702891 0.126559
vt 0.707789 0.124420
vt 0.699980 0.105628
vt 0.685454 0.084813
vt 0.691288 0.084284
vt 0.563407 0.299836
vt 0.571394 0.298875
vt 0.561406 0.264937
vt 0.550447 0.226033
vt 0.540898 0.224190
vt 0.578838 0.282245
vt 0.586812 0.281264
vt 0.576916 0.247679
vt 0.566052 0.209177
vt 0.556535 0.207385
vt 0.582374 0.173803
vt 0.592961 0.175704
vt 0.604997 0.217874
vt 0.615921 0.254567
vt 0.607040 0.255665
vt 0.614440 0.143273
vt 0.624271 0.144962
vt 0.635567 0.183033
vt 0.645810 0.216169
vt 0.637546 0.217177
vt 0.641691 0.113395
vt 0.651719 0.115056
vt 0.663656 0.152211
vt 0.674435 0.184468
vt 0.666024 0.185382
vt 0.671527 0.082829
vt 0.677351 0.082641
vt 0.687428 0.124706
vt 0.693206 0.160099
vt 0.684601 0.161648
vt 0.511903 0.222693
vt 0.504833 0.222328
vt 0.526709 0.206001
vt 0.519439 0.205663
vt 0.581505 0.142291
vt 0.551206 0.172485
vt 0.543611 0.172164
vt 0.573482 0.142053
vt 0.607257 0.112609
vt 0.598872 0.112418
vt 0.634292 0.083843
vt 0.625230 0.084090
vt 0.650209 0.086017
vt 0.641623 0.086310
vt 0.647390 0.107195
vt 0.656570 0.106955
vt 0.653330 0.129451
vt 0.663023 0.128885
vt 0.641220 0.163549
vt 0.649708 0.163177
vt 0.623027 0.186496
vt 0.631437 0.186278
vt 0.596475 0.218172
vt 0.604511 0.217977
vt 0.568196 0.256520
vt 0.575798 0.256353
vt 0.541700 0.282837
vt 0.548971 0.282722
vt 0.527314 0.300323
vt 0.534381 0.300227
vt 0.600984 0.107970
vt 0.595152 0.107879
vt 0.597323 0.126389
vt 0.603366 0.128293
vt 0.598552 0.087034
vt 0.592950 0.086804
vt 0.488037 0.298602
vt 0.476618 0.297343
vt 0.467698 0.264049
vt 0.457902 0.225869
vt 0.468210 0.224087
vt 0.501478 0.281251
vt 0.490147 0.280042
vt 0.481313 0.247102
vt 0.471608 0.209325
vt 0.481845 0.207528
vt 0.493035 0.176517
vt 0.504344 0.174469
vt 0.503793 0.217858
vt 0.513551 0.253815
vt 0.526029 0.255052
vt 0.521845 0.146406
vt 0.532250 0.144461
vt 0.531917 0.183722
vt 0.541043 0.216188
vt 0.552531 0.217176
vt 0.545437 0.117164
vt 0.555927 0.115128
vt 0.556066 0.153564
vt 0.565657 0.185154
vt 0.577246 0.185927
vt 0.572861 0.085359
vt 0.578962 0.085236
vt 0.577288 0.126670
vt 0.584896 0.161290
vt 0.595869 0.162598
vt 0.487765 0.223148
vt 0.501917 0.206532
vt 0.554257 0.143175
vt 0.525306 0.173238
vt 0.578844 0.113681
vt 0.603647 0.084625
vt 0.621533 0.086647
vt 0.625739 0.107557
vt 0.630019 0.128911
vt 0.620079 0.163106
vt 0.601689 0.186231
vt 0.575996 0.217708
vt 0.548551 0.255836
vt 0.522962 0.282098
vt 0.509018 0.299521
vt 0.552718 0.299980
vt 0.567838 0.282421
vt 0.595531 0.255919
vt 0.625376 0.217472
vt 0.653280 0.185712
vt 0.671746 0.162211
vt 0.688200 0.127416
vt 0.680394 0.106334
vt 0.672479 0.085256
vt 0.657813 0.083203
vt 0.629012 0.113106
vt 0.602315 0.142911
vt 0.570902 0.173318
vt 0.545559 0.206875
vt 0.530228 0.223639
vn -0.816561 -0.577237 -0.005127
vn -0.817575 -0.575754 -0.008913
vn -0.814624 -0.578223 -0.045229
vn -0.819903 -0.571984 -0.024376
vn -0.814920 -0.579574 -0.000364
vn -0.825035 -0.565077 -0.002318
vn -0.399921 0.910345 -0.106467
vn -0.620704 0.769464 -0.150504
vn -0.579407 0.754811 -0.307488
vn -0.388614 0.886334 -0.251777
vn -0.085103 -0.088629 -0.992423
vn 0.055256 0.007215 -0.998446
vn -0.075050 -0.075555 -0.994313
vn 0.055811 0.007265 -0.998415
vn -0.218852 -0.971390 -0.092222
vn 0.475894 -0.877911 -0.052893
vn 0.428618 -0.902066 -0.050623
vn 0.468335 -0.878410 -0.095172
vn 0.046991 0.001569 -0.998894
vn 0.046611 0.001393 -0.998912
vn -0.437622 0.892783 -0.106886
vn 0.437507 -0.898207 -0.042562
vn 0.434759 -0.894421 -0.104859
vn 0.042398 -0.001083 -0.999100
vn 0.042470 -0.001084 -0.999097
vn -0.461702 0.881287 -0.100820
vn 0.454488 -0.890365 -0.026286
vn 0.462926 -0.882733 -0.080505
vn 0.042741 -0.020282 -0.998880
vn 0.034596 0.005267 -0.999388
vn -0.450011 0.888200 -0.092687
vn 0.292438 -0.956260 -0.006791
vn 0.350425 -0.936136 -0.029199
vn 0.018059 -0.067122 -0.997581
vn 0.021991 -0.007276 -0.999732
vn -0.611203 0.785635 -0.095961
vn 0.500544 -0.865385 -0.023760
vn 0.453456 -0.890908 -0.025718
vn -0.223371 -0.974733 0.000000
vn 0.453690 -0.891160 0.000000
vn 0.437164 -0.898985 -0.026695
vn 0.462108 -0.886446 -0.025889
vn 0.413297 -0.910596 0.000000
vn 0.437785 -0.899080 0.000000
vn 0.450894 -0.892436 -0.015883
vn 0.452452 -0.891789 0.000000
vn 0.280671 -0.959797 -0.003637
vn 0.281699 -0.959503 0.000000
vn -0.349144 -0.937066 0.002573
vn -0.003436 -0.999994 0.000000
vn -0.815920 -0.578164 0.000000
vn -0.815058 -0.579373 -0.002877
vn -0.817816 -0.575480 0.000000
vn -0.961773 0.269332 -0.049530
vn -0.619182 0.785248 0.000000
vn -0.616874 0.784845 -0.059028
vn -0.453235 0.891391 0.000000
vn -0.452383 0.889997 -0.057060
vn -0.465102 0.885257 0.000000
vn -0.465467 0.882825 -0.062940
vn -0.444371 0.895843 0.000000
vn -0.442084 0.894476 -0.066899
vn -0.402738 0.915315 0.000000
vn -0.402821 0.912893 -0.066053
vn -0.450559 0.892747 0.000000
vn -0.449856 0.890329 -0.070319
vn -0.816560 -0.577237 0.005127
vn -0.819902 -0.571985 0.024376
vn -0.814624 -0.578224 0.045229
vn -0.817575 -0.575754 0.008913
vn -0.814919 -0.579574 0.000364
vn -0.825034 -0.565078 0.002318
vn -0.399921 0.910345 0.106467
vn -0.388614 0.886334 0.251777
vn -0.579407 0.754811 0.307487
vn -0.620704 0.769464 0.150504
vn 0.055256 0.007215 0.998446
vn -0.085103 -0.088629 0.992423
vn 0.055811 0.007265 0.998415
vn -0.075050 -0.075555 0.994313
vn 0.475894 -0.877911 0.052892
vn -0.218852 -0.971390 0.092223
vn 0.468335 -0.878410 0.095172
vn 0.428618 -0.902066 0.050623
vn 0.046991 0.001569 0.998894
vn 0.046611 0.001393 0.998912
vn -0.437622 0.892783 0.106887
vn 0.434759 -0.894421 0.104859
vn 0.437507 -0.898207 0.042562
vn 0.042398 -0.001083 0.999100
vn 0.042470 -0.001084 0.999097
vn -0.461702 0.881287 0.100820
vn 0.462926 -0.882733 0.080505
vn 0.454488 -0.890365 0.026286
vn 0.042741 -0.020282 0.998880
vn 0.034596 0.005267 0.999388
vn -0.450011 0.888200 0.092687
vn 0.350425 -0.936136 0.029199
vn 0.292438 -0.956261 0.006791
vn 0.018059 -0.067122 0.997581
vn 0.021990 -0.007276 0.999732
vn -0.611203 0.785635 0.095961
vn 0.500153 -0.865610 0.023777
vn 0.453542 -0.890864 0.025714
vn 0.437044 -0.899044 0.026704
vn 0.462671 -0.886153 0.025862
vn 0.452596 -0.891574 0.015886
vn 0.284088 -0.958791 0.003591
vn -0.348690 -0.937235 -0.002579
vn -0.815951 -0.578114 0.002884
vn -0.960491 0.273850 0.049627
vn -0.614735 0.786525 0.058990
vn -0.452047 0.890168 0.057046
vn -0.465169 0.882979 0.062978
vn -0.440729 0.895150 0.066819
vn -0.403343 0.912658 0.066101
vn -0.449418 0.890553 0.070281
vn -0.449141 0.890694 -0.070258
vn -0.403674 0.912510 -0.066131
vn -0.439851 0.895585 -0.066768
vn -0.464950 0.883093 -0.063001
vn -0.451790 0.890299 -0.057034
vn -0.614183 0.786957 -0.058971
vn -0.959793 0.276280 -0.049673
vn -0.816559 -0.577254 -0.002933
vn -0.350609 -0.936518 0.002572
vn 0.286577 -0.958051 -0.003566
vn 0.453678 -0.891025 -0.015856
vn 0.437025 -0.899053 -0.026706
vn 0.462940 -0.886013 -0.025849
vn 0.499956 -0.865724 -0.023787
vn 0.453598 -0.890835 -0.025711
s 1
g Bird_Tail
f 44/1/1 45/2/2 7/3/3 8/4/4
f 43/5/5 44/1/1 8/4/4 10/6/6
f 50/12/7 51/7/8 2/8/9 16/13/10
f 2/8/9 3/9/11 15/14/12 16/13/10
f 3/9/11 4/10/13 14/15/14 15/14/12
f 4/10/13 37/11/15 38/16/16 14/15/14
f 14/15/14 38/16/16 39/17/17 19/18/18
f 15/14/12 14/15/14 19/18/18 20/19/19
f 16/13/10 15/14/12 20/19/19 21/20/20
f 49/21/21 50/12/7 16/13/10 21/20/20
f 19/18/18 39/17/17 40/22/22 24/23/23
f 20/19/19 19/18/18 24/23/23 25/24/24
f 21/20/20 20/19/19 25/24/24 26/25/25
f 48/26/26 49/21/21 21/20/20 26/25/25
f 24/23/23 40/22/22 41/27/27 29/28/28
f 25/24/24 24/23/23 29/28/28 30/29/29
f 26/25/25 25/24/24 30/29/29 31/30/30
f 47/31/31 48/26/26 26/25/25 31/30/30
f 29/28/28 41/27/27 42/32/32 34/33/33
f 30/29/29 29/28/28 34/33/33 35/34/34
f 31/30/30 30/29/29 35/34/34 36/35/35
f 46/36/36 47/31/31 31/30/30 36/35/35
f 34/33/33 42/32/32 43/5/5 10/6/6
f 35/34/34 34/33/33 10/6/6 8/4/4
f 36/35/35 35/34/34 8/4/4 7/3/3
f 45/2/2 46/36/36 36/35/35 7/3/3
f 116/39/37 117/37/38 5/38/39 13/40/40
f 114/41/41 115/42/42 18/43/43 23/44/44
f 113/45/45 114/41/41 23/44/44 28/46/46
f 112/47/47 113/45/45 28/46/46 33/48/48
f 111/49/49 112/47/47 33/48/48 11/50/50
f 9/51/51 110/52/52 111/49/49 11/50/50
f 6/53/53 109/54/54 110/52/52 9/51/51
f 32/55/55 108/56/56 109/54/54 6/53/53
f 27/57/57 107/58/58 108/56/56 32/55/55
f 22/59/59 106/60/60 107/58/58 27/57/57
f 17/61/61 105/62/62 106/60/60 22/59/59
f 12/63/63 104/64/64 105/62/62 17/61/61
f 1/65/65 103/66/66 104/64/64 12/63/63
f 116/39/37 13/40/40 18/43/43 115/42/42
f 80/67/67 56/68/68 55/69/69 81/70/70
f 79/71/71 57/72/72 56/68/68 80/67/67
f 86/78/73 60/79/74 52/74/75 87/73/76
f 52/74/75 60/79/74 59/80/77 53/75/78
f 53/75/78 59/80/77 58/81/79 54/76/80
f 54/76/80 58/81/79 74/82/81 73/77/82
f 58/81/79 61/83/83 75/84/84 74/82/81
f 59/80/77 62/85/85 61/83/83 58/81/79
f 60/79/74 63/86/86 62/85/85 59/80/77
f 85/87/87 63/86/86 60/79/74 86/78/73
f 61/83/83 64/88/88 76/89/89 75/84/84
f 62/85/85 65/90/90 64/88/88 61/83/83
f 63/86/86 66/91/91 65/90/90 62/85/85
f 84/92/92 66/91/91 63/86/86 85/87/87
f 64/88/88 67/93/93 77/94/94 76/89/89
f 65/90/90 68/95/95 67/93/93 64/88/88
f 66/91/91 69/96/96 68/95/95 65/90/90
f 83/97/97 69/96/96 66/91/91 84/92/92
f 67/93/93 70/98/98 78/99/99 77/94/94
f 68/95/95 71/100/100 70/98/98 67/93/93
f 69/96/96 72/101/101 71/100/100 68/95/95
f 82/102/102 72/101/101 69/96/96 83/97/97
f 70/98/98 57/72/72 79/71/71 78/99/99
f 71/100/100 56/68/68 57/72/72 70/98/98
f 72/101/101 55/69/69 56/68/68 71/100/100
f 81/70/70 55/69/69 72/101/101 82/102/102
f 74/82/81 101/104/103 102/103/104 73/77/82
f 76/89/89 99/105/105 100/106/106 75/84/84
f 77/94/94 98/107/107 99/105/105 76/89/89
f 78/99/99 97/108/108 98/107/107 77/94/94
f 79/71/71 96/109/109 97/108/108 78/99/99
f 95/110/110 96/109/109 79/71/71 80/67/67
f 94/111/111 95/110/110 80/67/67 81/70/70
f 93/112/112 94/111/111 81/70/70 82/102/102
f 92/113/113 93/112/112 82/102/102 83/97/97
f 91/114/114 92/113/113 83/97/97 84/92/92
f 90/115/115 91/114/114 84/92/92 85/87/87
f 89/116/116 90/115/115 85/87/87 86/78/73
f 88/117/117 89/116/116 86/78/73 87/73/76
f 74/82/81 75/84/84 100/106/106 101/104/103
f 1/65/65 12/63/63 89/116/116 88/117/117
f 12/63/63 17/61/61 90/115/115 89/116/116
f 17/61/61 22/59/59 91/114/114 90/115/115
f 22/59/59 27/57/57 92/113/113 91/114/114
f 27/57/57 32/55/55 93/112/112 92/113/113
f 32/55/55 6/53/53 94/111/111 93/112/112
f 6/53/53 9/51/51 95/110/110 94/111/111
f 9/51/51 11/50/50 96/109/109 95/110/110
f 97/108/108 96/109/109 11/50/50 33/48/48
f 98/107/107 97/108/108 33/48/48 28/46/46
f 99/105/105 98/107/107 28/46/46 23/44/44
f 100/106/106 99/105/105 23/44/44 18/43/43
f 101/104/103 100/106/106 18/43/43 13/40/40
f 102/103/104 101/104/103 13/40/40 5/38/39
f 104/64/64 103/66/66 118/118/118 119/119/119
f 105/62/62 104/64/64 119/119/119 120/120/120
f 106/60/60 105/62/62 120/120/120 121/121/121
f 107/58/58 106/60/60 121/121/121 122/122/122
f 108/56/56 107/58/58 122/122/122 123/123/123
f 109/54/54 108/56/56 123/123/123 124/124/124
f 110/52/52 109/54/54 124/124/124 125/125/125
f 111/49/49 110/52/52 125/125/125 126/126/126
f 126/126/126 127/127/127 112/47/47 111/49/49
f 127/127/127 128/128/128 113/45/45 112/47/47
f 128/128/128 129/129/129 114/41/41 113/45/45
f 129/129/129 130/130/130 115/42/42 114/41/41
f 131/131/131 116/39/37 115/42/42 130/130/130
f 131/131/131 132/132/132 117/37/38 116/39/37
f 119/119/119 118/118/118 51/7/8 50/12/7
f 120/120/120 119/119/119 50/12/7 49/21/21
f 121/121/121 120/120/120 49/21/21 48/26/26
f 122/122/122 121/121/121 48/26/26 47/31/31
f 123/123/123 122/122/122 47/31/31 46/36/36
f 124/124/124 123/123/123 46/36/36 45/2/2
f 125/125/125 124/124/124 45/2/2 44/1/1
f 126/126/126 125/125/125 44/1/1 43/5/5
f 43/5/5 42/32/32 127/127/127 126/126/126
f 42/32/32 41/27/27 128/128/128 127/127/127
f 41/27/27 40/22/22 129/129/129 128/128/128
f 40/22/22 39/17/17 130/130/130 129/129/129
f 38/16/16 131/131/131 130/130/130 39/17/17
f 38/16/16 37/11/15 132/132/132 131/131/131
